<?xml version="1.0" standalone="no"?>
<!DOCTYPE svg PUBLIC "-//W3C//DTD SVG 20010904//EN"
 "http://www.w3.org/TR/2001/REC-SVG-20010904/DTD/svg10.dtd">
<svg version="1.0" xmlns="http://www.w3.org/2000/svg"
 width="200.000000pt" height="200.000000pt" viewBox="0 0 200.000000 200.000000"
 preserveAspectRatio="xMidYMid meet">
<metadata>
Created by potrace 1.11, written by Peter Selinger 2001-2013
</metadata>
<g transform="translate(0.000000,200.000000) scale(0.100000,-0.100000)"
fill="#000000" stroke="none">
<path d="M669 1986 c-41 -23 -56 -56 -83 -173 -30 -131 -34 -152 -41 -228 -4
-33 -8 -71 -9 -85 -8 -62 9 -73 134 -85 30 -4 71 -8 90 -11 49 -6 423 -5 490
1 118 11 195 26 206 40 6 7 9 35 7 61 -6 73 -6 73 84 59 161 -26 316 -78 365
-122 23 -21 9 -38 -40 -49 -20 -4 -39 -8 -42 -9 -189 -50 -998 -69 -1338 -30
-217 25 -428 80 -419 109 9 27 185 80 339 101 47 6 63 21 51 51 -5 13 -17 15
-72 9 -161 -16 -307 -60 -361 -108 -26 -23 -31 -34 -26 -55 18 -77 151 -130
401 -161 158 -20 282 -29 408 -32 53 -2 97 -5 97 -8 0 -3 -7 -43 -17 -89 -21
-107 -30 -114 -145 -109 -68 3 -91 8 -116 26 -35 24 -62 68 -62 99 0 40 -52
54 -66 18 -3 -8 0 -33 6 -57 15 -56 81 -123 135 -138 54 -15 204 -14 235 2 34
17 66 68 74 117 3 22 11 62 16 88 l11 47 230 0 230 0 -5 -41 c-7 -63 -30 -108
-67 -134 -28 -21 -45 -24 -125 -24 -103 -1 -119 6 -128 59 -12 66 -16 78 -27
91 -17 21 -39 17 -48 -8 -5 -13 -7 -25 -6 -28 2 -3 6 -22 9 -44 18 -110 58
-139 196 -138 170 1 233 50 262 206 9 46 17 66 28 67 8 0 22 2 30 3 8 2 51 6
95 10 105 9 238 41 285 67 63 35 71 88 23 136 -64 63 -266 129 -454 149 -30 3
-55 7 -56 8 -2 2 -18 75 -38 171 -3 17 -8 41 -11 55 -9 42 -36 91 -59 106 -49
32 -84 28 -218 -25 l-127 -51 -113 45 c-129 52 -180 62 -218 41z m648 -78 c18
-24 92 -402 80 -414 -3 -4 -76 -13 -172 -22 -134 -12 -398 -6 -568 14 l-58 7
6 46 c4 25 8 57 11 70 6 43 18 116 19 121 39 177 50 200 89 200 12 0 78 -23
149 -51 l127 -51 137 55 c138 56 154 58 180 25z"/>
<path d="M377 1159 c-75 -12 -183 -47 -279 -91 -86 -40 -105 -57 -91 -83 5 -7
80 -66 168 -130 88 -65 164 -121 169 -126 5 -5 -17 -47 -53 -102 -34 -52 -59
-100 -56 -108 3 -8 15 -19 28 -25 12 -5 209 -110 437 -231 228 -121 433 -230
456 -242 44 -23 74 -20 74 9 0 10 -28 43 -62 74 -34 30 -60 57 -58 59 5 4 129
72 261 142 291 155 389 210 393 221 3 7 -22 55 -56 106 -67 102 -67 96 8 139
87 49 270 164 276 173 12 18 9 26 -16 49 -67 61 -252 147 -357 167 -56 11 -75
6 -82 -20 -7 -26 9 -36 65 -44 40 -6 266 -111 290 -134 4 -4 -67 -52 -158
-106 -118 -71 -164 -104 -164 -118 0 -10 25 -56 57 -103 31 -47 54 -87 52 -89
-2 -2 -56 -31 -119 -65 -63 -33 -203 -107 -310 -164 -176 -95 -197 -103 -215
-91 -50 36 -312 305 -346 357 -44 67 -88 170 -120 279 -23 78 -40 98 -65 77
-20 -16 -17 -47 12 -140 62 -196 108 -266 293 -448 127 -124 148 -149 111
-129 -25 14 -94 51 -155 83 -168 89 -439 235 -443 240 -3 2 21 43 53 91 61 93
65 117 23 143 -13 7 -85 59 -161 114 -110 81 -134 103 -121 110 40 22 184 69
253 82 75 15 105 33 95 60 -7 18 -31 22 -87 14z"/>
<path d="M1456 938 c-9 -13 -18 -41 -21 -62 -14 -83 -84 -235 -150 -326 -19
-25 -74 -85 -125 -134 -65 -64 -90 -96 -88 -110 6 -42 51 -22 138 61 104 99
170 188 221 297 50 108 88 249 73 273 -16 26 -31 26 -48 1z"/>
</g>
</svg>
